<?xml version="1.0" standalone="no"?>
<!DOCTYPE svg PUBLIC "-//W3C//DTD SVG 20010904//EN"
 "http://www.w3.org/TR/2001/REC-SVG-20010904/DTD/svg10.dtd">
<svg version="1.0" xmlns="http://www.w3.org/2000/svg"
 width="512.000000pt" height="512.000000pt" viewBox="0 0 512.000000 512.000000"
 preserveAspectRatio="xMidYMid meet">
<metadata>
Created by potrace 1.11, written by Peter Selinger 2001-2013
</metadata>
<g transform="translate(0.000000,512.000000) scale(0.100000,-0.100000)"
fill="#000000" stroke="none">
<path d="M728 4290 c-91 -106 -161 -252 -192 -402 -14 -68 -16 -225 -16 -1337
0 -1358 -1 -1325 53 -1473 100 -275 350 -496 632 -561 85 -19 125 -26 125 -20
0 2 -11 19 -24 36 -63 84 -111 184 -149 312 -21 69 -21 88 -24 1205 l-3 1135
725 -725 725 -725 720 720 720 720 -3 -1125 -3 -1125 -23 -80 c-29 -101 -76
-205 -131 -284 -23 -35 -40 -65 -37 -67 2 -2 37 2 78 10 351 68 615 316 711
667 l23 84 0 1295 0 1295 -24 85 c-34 122 -89 233 -161 328 l-63 84 -651 -649
c-358 -356 -765 -761 -904 -898 l-252 -250 -898 898 c-493 493 -900 897 -904
897 -4 0 -26 -22 -50 -50z"/>
</g>
</svg>
